<?xml version="1.0" encoding="UTF-8" standalone="no"?>
<svg
   xmlns:dc="http://purl.org/dc/elements/1.1/"
   xmlns:cc="http://creativecommons.org/ns#"
   xmlns:rdf="http://www.w3.org/1999/02/22-rdf-syntax-ns#"
   xmlns:svg="http://www.w3.org/2000/svg"
   xmlns="http://www.w3.org/2000/svg"
   xmlns:sodipodi="http://sodipodi.sourceforge.net/DTD/sodipodi-0.dtd"
   xmlns:inkscape="http://www.inkscape.org/namespaces/inkscape"
   data-name="Layer 1"
   id="Layer_1"
   viewBox="0 0 100 100"
   version="1.1"
   sodipodi:docname="aquarius.svg"
   inkscape:version="0.92.1 r15371">
  <metadata
     id="metadata4496">
    <rdf:RDF>
      <cc:Work
         rdf:about="">
        <dc:format>image/svg+xml</dc:format>
        <dc:type
           rdf:resource="http://purl.org/dc/dcmitype/StillImage" />
        <dc:title></dc:title>
      </cc:Work>
    </rdf:RDF>
  </metadata>
  <defs
     id="defs4494" />
  <sodipodi:namedview
     pagecolor="#ffffff"
     bordercolor="#666666"
     borderopacity="1"
     objecttolerance="10"
     gridtolerance="10"
     guidetolerance="10"
     inkscape:pageopacity="0"
     inkscape:pageshadow="2"
     inkscape:window-width="1366"
     inkscape:window-height="745"
     id="namedview4492"
     showgrid="false"
     inkscape:zoom="2.73"
     inkscape:cx="50"
     inkscape:cy="38.792549"
     inkscape:window-x="-8"
     inkscape:window-y="-8"
     inkscape:window-maximized="1"
     inkscape:current-layer="layer2"
     inkscape:pagecheckerboard="true" />
  <g
     inkscape:groupmode="layer"
     id="layer1"
     inkscape:label="back">
    <g
       transform="matrix(4.0837252,0,0,4.0837252,-15.39375,-15.804757)"
       id="stop"
       style="stroke-width:0.24487445">
      <g
         id="g4503"
         style="stroke-width:0.24487445" />
    </g>
  </g>
  <g
     inkscape:groupmode="layer"
     id="layer2"
     inkscape:label="front">
    <g
       id="g5150"
       transform="translate(-0.5310832,-2.3001542)"
       style="fill:#ffffff">
      <path
         id="path4489"
         style="fill:#ffffff"
         d="m 19.12,46.47 7.63,-7.63 7.63,7.63 a 6,6 0 0 0 8.48,0 l 7.63,-7.63 7.63,7.63 a 6,6 0 0 0 8.48,0 l 7.63,-7.63 7.63,7.63 A 6.0033532,6.0033532 0 1 0 90.37,38 L 78.49,26.11 a 6,6 0 0 0 -8.48,0 l -7.63,7.63 -7.63,-7.63 a 6,6 0 0 0 -8.48,0 L 38.64,33.74 31,26.11 a 6,6 0 0 0 -8.48,0 L 10.63,38 a 6,6 0 1 0 8.48,8.49 z m 0,31.09 7.63,-7.63 7.63,7.63 a 6,6 0 0 0 8.48,0 l 7.63,-7.63 7.63,7.63 a 6,6 0 0 0 8.48,0 l 7.63,-7.63 7.63,7.63 a 6,6 0 0 0 8.48,-8.49 L 78.49,57.2 a 6,6 0 0 0 -8.48,0 l -7.63,7.63 -7.64,-7.63 a 6,6 0 0 0 -8.48,0 L 38.63,64.83 31,57.2 a 6,6 0 0 0 -8.48,0 L 10.63,69.07 a 6,6 0 0 0 8.48,8.49 z m 76.277914,27.36343 H 5.5559592 c -4.5043489,0 -8.1674504,-3.6631 -8.1674504,-8.167452 V 6.9140232 c 0,-4.5043489 3.6631015,-8.1674504 8.1674504,-8.1674504 H 95.397914 c 4.504348,0 8.167446,3.6631015 8.167446,8.1674504 V 96.755978 c 0,4.504352 -3.663098,8.167452 -8.167446,8.167452 z m 0,-8.167452 V 100.8397 Z M 5.5559592,6.9140232 V 96.755978 H 95.385662 L 95.397914,6.9140232 Z M 99.481639,96.755978 c 0,2.246048 -1.837677,4.083722 -4.083725,4.083722 H 5.5559592 c -2.2460489,0 -4.0837252,-1.837674 -4.0837252,-4.083722 V 6.9140232 c 0,-2.2460489 1.8376763,-4.0837252 4.0837252,-4.0837252 H 95.397914 c 2.246048,0 4.083725,1.8376763 4.083725,4.0837252 z" />
    </g>
  </g>
</svg>
