<?xml version="1.0" encoding="UTF-8" standalone="no"?>
<svg
   xmlns:dc="http://purl.org/dc/elements/1.1/"
   xmlns:cc="http://creativecommons.org/ns#"
   xmlns:rdf="http://www.w3.org/1999/02/22-rdf-syntax-ns#"
   xmlns:svg="http://www.w3.org/2000/svg"
   xmlns="http://www.w3.org/2000/svg"
   xmlns:sodipodi="http://sodipodi.sourceforge.net/DTD/sodipodi-0.dtd"
   xmlns:inkscape="http://www.inkscape.org/namespaces/inkscape"
   data-name="Layer 1"
   id="Layer_1"
   viewBox="0 0 100 100"
   version="1.1"
   sodipodi:docname="aries.svg"
   inkscape:version="0.92.1 r15371">
  <metadata
     id="metadata5174">
    <rdf:RDF>
      <cc:Work
         rdf:about="">
        <dc:format>image/svg+xml</dc:format>
        <dc:type
           rdf:resource="http://purl.org/dc/dcmitype/StillImage" />
        <dc:title></dc:title>
      </cc:Work>
    </rdf:RDF>
  </metadata>
  <defs
     id="defs5172" />
  <sodipodi:namedview
     pagecolor="#ffffff"
     bordercolor="#666666"
     borderopacity="1"
     objecttolerance="10"
     gridtolerance="10"
     guidetolerance="10"
     inkscape:pageopacity="0"
     inkscape:pageshadow="2"
     inkscape:window-width="694"
     inkscape:window-height="635"
     id="namedview5170"
     showgrid="false"
     inkscape:pagecheckerboard="true"
     inkscape:zoom="1.18"
     inkscape:cx="33.351558"
     inkscape:cy="50"
     inkscape:window-x="266"
     inkscape:window-y="21"
     inkscape:window-maximized="0"
     inkscape:current-layer="layer4" />
  <g
     inkscape:groupmode="layer"
     id="layer3"
     inkscape:label="b"
     style="opacity:0.98">
    <g
       transform="matrix(4.0837252,0,0,4.0837252,-12.829325,-13.644688)"
       id="stop"
       style="stroke-width:0.24487445">
      <g
         id="g4503"
         style="stroke-width:0.24487445" />
    </g>
  </g>
  <g
     inkscape:groupmode="layer"
     id="layer4"
     inkscape:label="f">
    <path
       id="path5167"
       style="fill:#ffffff"
       d="m 20.740278,46.566808 a 6,6 0 0 0 5.999999,-6 9.89,9.89 0 1 1 19.770001,0 v 38.11 a 6,6 0 0 0 12,0 v -38.11 a 9.89,9.89 0 0 1 19.77,0 6,6 0 0 0 12,0 21.87,21.87 0 0 0 -37.77,-15 21.87,21.87 0 0 0 -37.77,15 6,6 0 0 0 6,6 z M 97.431255,104.78334 H 7.5893008 c -4.5043489,0 -8.1674504,-3.6631 -8.1674504,-8.167447 V 6.7739382 c 0,-4.5043489 3.6631015,-8.1674504 8.1674504,-8.1674504 H 97.431255 c 4.504345,0 8.167455,3.6631015 8.167455,8.1674504 V 96.615893 c 0,4.504347 -3.66311,8.167447 -8.167455,8.167447 z m 0,-8.167447 v 4.083727 z M 7.5893008,6.7739382 V 96.615893 H 97.419004 L 97.431255,6.7739382 Z M 101.51498,96.615893 c 0,2.246048 -1.837676,4.083727 -4.083725,4.083727 H 7.5893008 c -2.2460489,0 -4.0837252,-1.837679 -4.0837252,-4.083727 V 6.7739382 c 0,-2.2460488 1.8376763,-4.0837252 4.0837252,-4.0837252 H 97.431255 c 2.246049,0 4.083725,1.8376764 4.083725,4.0837252 z" />
  </g>
</svg>
