<?xml version="1.0" encoding="UTF-8" standalone="no"?>
<svg
   xmlns:dc="http://purl.org/dc/elements/1.1/"
   xmlns:cc="http://creativecommons.org/ns#"
   xmlns:rdf="http://www.w3.org/1999/02/22-rdf-syntax-ns#"
   xmlns:svg="http://www.w3.org/2000/svg"
   xmlns="http://www.w3.org/2000/svg"
   xmlns:sodipodi="http://sodipodi.sourceforge.net/DTD/sodipodi-0.dtd"
   xmlns:inkscape="http://www.inkscape.org/namespaces/inkscape"
   data-name="Layer 1"
   id="Layer_1"
   viewBox="0 0 100 100"
   version="1.1"
   sodipodi:docname="cancer.svg"
   inkscape:version="0.92.1 r15371">
  <metadata
     id="metadata5761">
    <rdf:RDF>
      <cc:Work
         rdf:about="">
        <dc:format>image/svg+xml</dc:format>
        <dc:type
           rdf:resource="http://purl.org/dc/dcmitype/StillImage" />
        <dc:title></dc:title>
      </cc:Work>
    </rdf:RDF>
  </metadata>
  <defs
     id="defs5759" />
  <sodipodi:namedview
     pagecolor="#ffffff"
     bordercolor="#666666"
     borderopacity="1"
     objecttolerance="10"
     gridtolerance="10"
     guidetolerance="10"
     inkscape:pageopacity="0"
     inkscape:pageshadow="2"
     inkscape:window-width="694"
     inkscape:window-height="480"
     id="namedview5757"
     showgrid="false"
     inkscape:pagecheckerboard="true"
     inkscape:zoom="1.668772"
     inkscape:cx="50"
     inkscape:cy="50"
     inkscape:window-x="520"
     inkscape:window-y="174"
     inkscape:window-maximized="0"
     inkscape:current-layer="layer5" />
  <g
     inkscape:groupmode="layer"
     id="layer6"
     inkscape:label="b">
    <g
       transform="matrix(4.0837252,0,0,4.0837252,-19.153162,-14.939603)"
       id="stop"
       style="opacity:0.98000004;stroke-width:0.24487445">
      <g
         id="g4503"
         style="stroke-width:0.24487445" />
    </g>
  </g>
  <g
     inkscape:groupmode="layer"
     id="layer5"
     inkscape:label="f"
     style="display:inline">
    <g
       transform="translate(-2.5913391,-2.1084904)"
       id="g6320"
       style="fill:#ff0000">
      <path
         id="path5754"
         style="fill:#ffffff"
         d="m 50.994701,82.240598 a 46,46 0 0 0 32.27,-13.12 16.36,16.36 0 1 0 -21.18,-0.72 34.35,34.35 0 0 1 -35.35,-8.21 6.0033366,6.0033366 0 0 0 -8.49,8.49 46,46 0 0 0 32.75,13.56 z m 22.1,-30.25 a 4.35,4.35 0 1 1 -4.35,4.35 4.36,4.36 0 0 1 4.35,-4.35 z m -40.25,-3.75 a 16.33,16.33 0 0 0 11,-28.42 34.35,34.35 0 0 1 35.35,8.22 6.0033366,6.0033366 0 0 0 8.49,-8.49 46.28,46.28 0 0 0 -65,-0.44 16.34,16.34 0 0 0 10.16,29.13 z m 0,-20.71 a 4.35,4.35 0 1 1 -4.35,4.35 4.36,4.36 0 0 1 4.35,-4.35 z M 97.893458,97.207521 H 8.0515038 c -4.504349,0 -8.16744995,-3.6631 -8.16744995,-8.167455 V -0.80188925 c 0,-4.50434895 3.66310095,-8.16745045 8.16744995,-8.16745045 H 97.893458 c 4.504352,0 8.167452,3.6631015 8.167452,8.16745045 V 89.040066 c 0,4.504355 -3.6631,8.167455 -8.167452,8.167455 z m 0,-8.167455 v 4.083725 z M 8.0515038,-0.80188925 V 89.040066 H 97.881207 l 0.01225,-89.84195525 z M 101.97718,89.040066 c 0,2.246048 -1.83767,4.083725 -4.083722,4.083725 H 8.0515038 c -2.246049,0 -4.083725,-1.837677 -4.083725,-4.083725 V -0.80188925 c 0,-2.24604885 1.837676,-4.08372525 4.083725,-4.08372525 H 97.893458 c 2.246052,0 4.083722,1.8376764 4.083722,4.08372525 z"
         inkscape:connector-curvature="0" />
    </g>
  </g>
</svg>
