<?xml version="1.0" encoding="UTF-8" standalone="no"?>
<svg
   xmlns:dc="http://purl.org/dc/elements/1.1/"
   xmlns:cc="http://creativecommons.org/ns#"
   xmlns:rdf="http://www.w3.org/1999/02/22-rdf-syntax-ns#"
   xmlns:svg="http://www.w3.org/2000/svg"
   xmlns="http://www.w3.org/2000/svg"
   xmlns:sodipodi="http://sodipodi.sourceforge.net/DTD/sodipodi-0.dtd"
   xmlns:inkscape="http://www.inkscape.org/namespaces/inkscape"
   data-name="Layer 1"
   id="Layer_1"
   viewBox="0 0 100 100"
   version="1.1"
   sodipodi:docname="capricorn.svg"
   inkscape:version="0.92.1 r15371">
  <metadata
     id="metadata6390">
    <rdf:RDF>
      <cc:Work
         rdf:about="">
        <dc:format>image/svg+xml</dc:format>
        <dc:type
           rdf:resource="http://purl.org/dc/dcmitype/StillImage" />
        <dc:title></dc:title>
      </cc:Work>
    </rdf:RDF>
  </metadata>
  <defs
     id="defs6388" />
  <sodipodi:namedview
     pagecolor="#ffffff"
     bordercolor="#666666"
     borderopacity="1"
     objecttolerance="10"
     gridtolerance="10"
     guidetolerance="10"
     inkscape:pageopacity="0"
     inkscape:pageshadow="2"
     inkscape:window-width="694"
     inkscape:window-height="480"
     id="namedview6386"
     showgrid="false"
     inkscape:pagecheckerboard="true"
     inkscape:zoom="2.36"
     inkscape:cx="50"
     inkscape:cy="50"
     inkscape:window-x="0"
     inkscape:window-y="0"
     inkscape:window-maximized="0"
     inkscape:current-layer="Layer_1" />
  <g
     transform="matrix(4.0837252,0,0,4.0837252,-19.40817,-17.562524)"
     id="stop"
     style="opacity:0.98000004;stroke-width:0.24487445">
    <g
       id="g4503"
       style="stroke-width:0.24487445" />
  </g>
  <path
     id="path6383"
     style="fill:#ffffff"
     d="M 69.11,53.56 A 15,15 0 0 0 61.53,53.18 V 27.85 A 15.3,15.3 0 0 0 36.87,15.72 15.3,15.3 0 0 0 12.23,27.85 a 6,6 0 1 0 12,0 3.325,3.325 0 0 1 6.65,0 v 26 a 6,6 0 0 0 12,0 v -26 a 3.325,3.325 0 0 1 6.65,0 v 32.33 l -13.88,10 a 6,6 0 1 0 7,9.74 l 8.12,-5.85 A 15.08,15.08 0 1 0 69.09,53.57 Z M 67.5,68.88 a 3.08,3.08 0 0 1 -6,-0.52 c 0,-0.13 0,-0.26 0,-0.4 v -0.52 a 3,3 0 0 1 0.09,-0.42 3.09,3.09 0 0 1 5.89,1.86 z m 23.35241,31.98551 H 1.0104557 c -4.5043489,0 -8.1674504,-3.663105 -8.1674504,-8.167454 V 2.8561016 c 0,-4.5043489 3.6631015,-8.1674504 8.1674504,-8.1674504 H 90.85241 c 4.504349,0 8.167451,3.6631015 8.167451,8.1674504 V 92.698056 c 0,4.504349 -3.663102,8.167454 -8.167451,8.167454 z m 0,-8.167454 v 4.083725 z M 1.0104557,2.8561016 V 92.698056 H 90.840159 L 90.85241,2.8561016 Z M 94.936135,92.698056 c 0,2.246049 -1.837676,4.083725 -4.083725,4.083725 H 1.0104557 c -2.2460489,0 -4.0837252,-1.837676 -4.0837252,-4.083725 V 2.8561016 c 0,-2.24604885 1.8376763,-4.0837252 4.0837252,-4.0837252 H 90.85241 c 2.246049,0 4.083725,1.83767635 4.083725,4.0837252 z" />
</svg>
