<?xml version="1.0" encoding="UTF-8" standalone="no"?>
<svg
   xmlns:dc="http://purl.org/dc/elements/1.1/"
   xmlns:cc="http://creativecommons.org/ns#"
   xmlns:rdf="http://www.w3.org/1999/02/22-rdf-syntax-ns#"
   xmlns:svg="http://www.w3.org/2000/svg"
   xmlns="http://www.w3.org/2000/svg"
   xmlns:sodipodi="http://sodipodi.sourceforge.net/DTD/sodipodi-0.dtd"
   xmlns:inkscape="http://www.inkscape.org/namespaces/inkscape"
   data-name="Layer 1"
   id="Layer_1"
   viewBox="0 0 100 100"
   version="1.1"
   sodipodi:docname="leo.svg"
   inkscape:version="0.92.1 r15371">
  <metadata
     id="metadata7513">
    <rdf:RDF>
      <cc:Work
         rdf:about="">
        <dc:format>image/svg+xml</dc:format>
        <dc:type
           rdf:resource="http://purl.org/dc/dcmitype/StillImage" />
        <dc:title></dc:title>
      </cc:Work>
    </rdf:RDF>
  </metadata>
  <defs
     id="defs7511" />
  <sodipodi:namedview
     pagecolor="#ffffff"
     bordercolor="#666666"
     borderopacity="1"
     objecttolerance="10"
     gridtolerance="10"
     guidetolerance="10"
     inkscape:pageopacity="0"
     inkscape:pageshadow="2"
     inkscape:window-width="694"
     inkscape:window-height="480"
     id="namedview7509"
     showgrid="false"
     inkscape:pagecheckerboard="true"
     inkscape:zoom="2.36"
     inkscape:cx="50"
     inkscape:cy="50"
     inkscape:window-x="0"
     inkscape:window-y="0"
     inkscape:window-maximized="0"
     inkscape:current-layer="Layer_1" />
  <g
     transform="matrix(4.0837252,0,0,4.0837252,-18.253183,-7.6702739)"
     id="stop"
     style="opacity:0.98000004;stroke-width:0.24487445">
    <g
       id="g4503"
       style="stroke-width:0.24487445" />
  </g>
  <path
     id="path7506"
     style="fill:#ffffff"
     d="M 24,81.46 A 16.5,16.5 0 0 0 40.22,64.77 c 0,-0.05 0,-0.11 0,-0.16 0,-0.05 0,-0.1 0,-0.16 V 41.94 a 5.79,5.79 0 0 1 5.53,-6 5.79,5.79 0 0 1 5.53,6 v 31.51 a 17.53,17.53 0 1 0 35.05,0 6,6 0 0 0 -12,0 5.54,5.54 0 1 1 -11.05,0 V 41.94 a 17.79,17.79 0 0 0 -17.53,-18 17.79,17.79 0 0 0 -17.53,18 v 6.74 a 15.78,15.78 0 0 0 -4.26,-0.6 16.7,16.7 0 0 0 0,33.38 z m 0,-21.38 a 4.71,4.71 0 0 1 0,9.38 4.71,4.71 0 0 1 0,-9.38 z m 68.007397,50.67776 H 2.165443 c -4.5043489,0 -8.1674504,-3.6631 -8.1674504,-8.16745 V 12.748352 c 0,-4.5043488 3.6631015,-8.1674503 8.1674504,-8.1674503 h 89.841954 c 4.504349,0 8.167453,3.6631015 8.167453,8.1674503 v 89.841958 c 0,4.50435 -3.663104,8.16745 -8.167453,8.16745 z m 0,-8.16745 v 4.08372 z M 2.165443,12.748352 v 89.841958 h 89.829703 l 0.01225,-89.841958 z m 93.92568,89.841958 c 0,2.24605 -1.837677,4.08372 -4.083726,4.08372 H 2.165443 c -2.24604886,0 -4.0837252,-1.83767 -4.0837252,-4.08372 V 12.748352 c 0,-2.246049 1.83767634,-4.0837251 4.0837252,-4.0837251 h 89.841954 c 2.246049,0 4.083726,1.8376761 4.083726,4.0837251 z" />
</svg>
