<?xml version="1.0" encoding="UTF-8" standalone="no"?>
<svg
   xmlns:dc="http://purl.org/dc/elements/1.1/"
   xmlns:cc="http://creativecommons.org/ns#"
   xmlns:rdf="http://www.w3.org/1999/02/22-rdf-syntax-ns#"
   xmlns:svg="http://www.w3.org/2000/svg"
   xmlns="http://www.w3.org/2000/svg"
   xmlns:sodipodi="http://sodipodi.sourceforge.net/DTD/sodipodi-0.dtd"
   xmlns:inkscape="http://www.inkscape.org/namespaces/inkscape"
   data-name="Layer 1"
   id="Layer_1"
   viewBox="0 0 100 100"
   version="1.1"
   sodipodi:docname="libra.svg"
   inkscape:version="0.92.1 r15371">
  <metadata
     id="metadata8069">
    <rdf:RDF>
      <cc:Work
         rdf:about="">
        <dc:format>image/svg+xml</dc:format>
        <dc:type
           rdf:resource="http://purl.org/dc/dcmitype/StillImage" />
        <dc:title></dc:title>
      </cc:Work>
    </rdf:RDF>
  </metadata>
  <defs
     id="defs8067" />
  <sodipodi:namedview
     pagecolor="#ffffff"
     bordercolor="#666666"
     borderopacity="1"
     objecttolerance="10"
     gridtolerance="10"
     guidetolerance="10"
     inkscape:pageopacity="0"
     inkscape:pageshadow="2"
     inkscape:window-width="694"
     inkscape:window-height="480"
     id="namedview8065"
     showgrid="false"
     inkscape:pagecheckerboard="true"
     inkscape:zoom="2.36"
     inkscape:cx="50"
     inkscape:cy="50"
     inkscape:window-x="0"
     inkscape:window-y="0"
     inkscape:window-maximized="0"
     inkscape:current-layer="Layer_1" />
  <g
     transform="matrix(4.0837252,0,0,4.0837252,-19.424603,-7.8144983)"
     id="stop"
     style="opacity:0.98000004;stroke-width:0.24487445">
    <g
       id="g4503"
       style="stroke-width:0.24487445" />
  </g>
  <g
     id="g9796"
     style="fill:#ffffff">
    <path
       id="path8062"
       style="fill:#ffffff"
       d="m 17.83,70.87 h 13.49 a 6,6 0 0 0 4.24,-10.24 14.64,14.64 0 1 1 20.7,0 6,6 0 0 0 4.24,10.24 H 74 a 6,6 0 0 0 0,-12 h -2.88 a 26.63,26.63 0 1 0 -50.42,0 h -2.87 a 6,6 0 0 0 0,12 z m 0,20.52 H 74 a 6,6 0 0 0 0,-12 H 17.83 a 6,6 0 0 0 0,12 z m 73.005977,19.22353 H 0.9940228 c -4.5043489,0 -8.1674504,-3.6631 -8.1674504,-8.16745 V 12.604128 c 0,-4.5043492 3.6631015,-8.1674507 8.1674504,-8.1674507 H 90.835977 c 4.504349,0 8.167451,3.6631015 8.167451,8.1674507 v 89.841952 c 0,4.50435 -3.663102,8.16745 -8.167451,8.16745 z m 0,-8.16745 v 4.08373 z M 0.9940228,12.604128 V 102.44608 H 90.823726 l 0.01225,-89.841952 z M 94.919702,102.44608 c 0,2.24605 -1.837676,4.08373 -4.083725,4.08373 H 0.9940228 c -2.2460489,0 -4.0837252,-1.83768 -4.0837252,-4.08373 V 12.604128 c 0,-2.246049 1.8376763,-4.0837255 4.0837252,-4.0837255 H 90.835977 c 2.246049,0 4.083725,1.8376765 4.083725,4.0837255 z" />
  </g>
</svg>
