<svg height="496pt" viewBox="0 0 496 496" width="496pt" xmlns="http://www.w3.org/2000/svg"><path d="m0 480h16v16h-16zm0 0"/><path d="m480 480h16v16h-16zm0 0"/><path d="m456 442.265625c0-19.035156-10.207031-36.816406-26.65625-46.410156l-6.929688-4.039063c14.25-.960937 25.585938-12.746094 25.585938-27.230468v-1.171876c0-15.109374-12.296875-27.414062-27.414062-27.414062-4.234376 0-8.480469 1-12.265626 2.894531l-7.320312 3.664063-23.128906-18.503906c-7.351563-5.878907-13.078125-13.597657-16.566406-22.328126l-5.410157-13.511718c-2.582031-6.472656-3.894531-13.285156-3.894531-20.253906v-5.714844l33.34375-8.335938-13.726562-68.628906c-2.90625-14.539062-13.527344-26.210938-27.738282-30.472656l-55.878906-16.761719v-18.925781c9.878906-10.105469 16-23.90625 16-39.113282v-24.007812c0-30.878906-25.128906-56-56-56s-56 25.121094-56 56v24c0 15.214844 6.121094 29.015625 16 39.113281v18.925781l-55.878906 16.769532c-14.199219 4.253906-24.832032 15.933594-27.738282 30.472656l-13.726562 68.628906 33.34375 8.335938v5.714844c0 6.96875-1.3125 13.78125-3.894531 20.246093l-5.410157 13.511719c-3.496093 8.730469-9.214843 16.449219-16.566406 22.328125l-23.128906 18.503906-7.320312-3.664062c-3.792969-1.886719-8.03125-2.886719-12.265626-2.886719-15.117187 0-27.414062 12.304688-27.414062 27.414062v1.171876c0 14.484374 11.335938 26.269531 25.585938 27.230468l-6.929688 4.039063c-16.449219 9.59375-26.65625 27.375-26.65625 46.410156 0 14.695313 5.9375 28.023437 15.535156 37.734375h-23.535156v16h432v-16h-23.535156c9.597656-9.710938 15.535156-23.039062 15.535156-37.734375zm-149.238281-16.335937-15.859375-9.515626 5.097656-5.101562v-10.34375c0-4.945312 4.023438-8.96875 8.96875-8.96875 6.574219 0 13.007812-2.664062 17.65625-7.3125l14.0625-14.0625c1.671875-1.664062 3.984375-2.625 6.34375-2.625 4.945312 0 8.96875 4.023438 8.96875 8.96875 0 2.398438-.929688 4.648438-2.625 6.34375zm-160.136719-42.617188c-1.695312-1.695312-2.625-3.945312-2.625-6.34375 0-4.945312 4.023438-8.96875 8.96875-8.96875 2.359375 0 4.671875.960938 6.34375 2.625l14.0625 14.0625c4.648438 4.648438 11.082031 7.3125 17.65625 7.3125 4.945312 0 8.96875 4.023438 8.96875 8.96875v10.34375l12.6875 12.6875-12.6875 12.6875zm77.375 29.375-8-8v-3.71875c0-13.769531-11.199219-24.96875-24.96875-24.96875-2.359375 0-4.671875-.960938-6.34375-2.625l-14.0625-14.0625c-1.847656-1.847656-4.03125-3.289062-6.34375-4.464844 3.398438-2.304687 6.453125-5.03125 9.046875-8.199218 12.855469 7.121093 42.558594 21.351562 74.671875 21.351562s61.816406-14.230469 74.671875-21.34375c2.59375 3.167969 5.648437 5.886719 9.046875 8.191406-2.3125 1.175782-4.496094 2.617188-6.34375 4.464844l-14.0625 14.0625c-1.671875 1.664062-3.984375 2.625-6.34375 2.625-13.769531 0-24.96875 11.199219-24.96875 24.96875v3.71875l-3.238281 3.242188-30-18zm-32-139.535156v-19.738282l4.894531-1.957031c45.761719-18.304687 83.914063-49.695312 110.859375-90.777343l24.421875 7.328124-7.601562 19c-12.621094 31.566407-32.734375 60.199219-58.160157 82.808594-20.324218 18.0625-43.535156 32.0625-68.828124 41.542969l-11.113282 3.898437c3.566406-13.730468 5.527344-27.792968 5.527344-42.105468zm122.992188 59.449218c-11.417969 6.300782-38.566407 19.398438-66.992188 19.398438-27 0-52.976562-11.910156-65.265625-18.480469l20.304687-7.128906c27.304688-10.230469 52.199219-25.246094 74-44.621094 9.761719-8.679687 18.761719-18.21875 26.953126-28.402343v19.777343c.007812 20.421875 3.785156 40.382813 11 59.457031zm26.046874-38.449218 5.410157 13.511718c4.519531 11.296876 11.925781 21.28125 21.429687 28.871094l31.128906 24.90625 16.480469-8.242187c1.566407-.785157 3.335938-1.199219 5.097657-1.199219 6.292968 0 11.414062 5.121094 11.414062 11.414062v1.171876c0 6.292968-5.121094 11.414062-11.414062 11.414062h-18.515626l-59.496093-33.046875c-5.285157-2.9375-9.445313-7.65625-11.695313-13.28125-7.214844-18.0625-10.878906-37.078125-10.878906-56.519531v-2.90625l16-4v1.714844c0 9.015624 1.695312 17.824218 5.039062 26.191406zm25.617188-52.0625-46.65625 11.664062v-22.800781c7.601562-12.066406 14.144531-24.785156 19.441406-38.007813l7.480469-18.699218c4.519531 3.480468 7.855469 8.371094 9.015625 14.167968zm-94.65625-101.625c-5.207031 4.472656-15.257812 11.535156-24 11.535156s-18.792969-7.0625-24-11.535156v-9.945313c7.289062 3.472657 15.40625 5.480469 24 5.480469s16.710938-2.007812 24-5.480469zm-64-84.464844c0-22.054688 17.945312-40 40-40s40 17.945312 40 40v24c0 22.054688-17.945312 40-40 40s-40-17.945312-40-40zm-67.929688 132.425781c1.746094-8.722656 8.128907-15.730469 16.640626-18.28125l57.265624-17.183593c6.269532 5.351562 19.582032 15.039062 34.023438 15.039062s27.753906-9.6875 34.023438-15.039062l9.679687 2.902343c-24.765625 36.066407-58.96875 63.746094-99.703125 80.273438v-28.136719h-16v45.753906l-46.65625-11.664062zm-76.070312 176.160157v-1.171876c0-6.292968 5.121094-11.414062 11.414062-11.414062 1.769532 0 3.53125.414062 5.113282 1.207031l16.480468 8.242188 31.128907-24.90625c9.503906-7.597657 16.902343-17.582031 21.429687-28.871094l5.410156-13.519531c3.34375-8.359375 5.039063-17.175782 5.039063-26.191406v-1.714844l16 4v2.90625c0 19.441406-3.664063 38.457031-10.871094 56.511718-2.257812 5.632813-6.417969 10.34375-11.703125 13.289063l-59.511718 33.046875h-18.515626c-6.292968 0-11.414062-5.121094-11.414062-11.414062zm29.734375 115.414062c-20.804687 0-37.734375-16.929688-37.734375-37.734375 0-13.371094 7.167969-25.859375 18.71875-32.59375l53.433594-31.167969c.367187 6.089844 2.816406 11.769532 7.160156 16.121094l70.910156 70.910156c5.417969 5.417969 11.351563 10.082032 17.648438 14.113282-2.535156.222656-5.078125.351562-7.640625.351562zm186.035156 0c-23.503906 0-45.609375-9.152344-62.226562-25.777344l-6.230469-6.222656 37.925781-37.929688 49.640625 29.785157 25 15 8.234375-13.71875-11.21875-6.730469 39.785157-39.78125c4.351562-4.34375 6.792968-10.03125 7.160156-16.121094l53.433594 31.167969c11.542968 6.734375 18.71875 19.222656 18.71875 32.59375.007812 20.804687-16.921876 37.734375-37.726563 37.734375zm0 0"/></svg>