<?xml version="1.0" encoding="UTF-8" standalone="no"?>
<svg
   xmlns:dc="http://purl.org/dc/elements/1.1/"
   xmlns:cc="http://creativecommons.org/ns#"
   xmlns:rdf="http://www.w3.org/1999/02/22-rdf-syntax-ns#"
   xmlns:svg="http://www.w3.org/2000/svg"
   xmlns="http://www.w3.org/2000/svg"
   xmlns:sodipodi="http://sodipodi.sourceforge.net/DTD/sodipodi-0.dtd"
   xmlns:inkscape="http://www.inkscape.org/namespaces/inkscape"
   data-name="Layer 1"
   id="Layer_1"
   viewBox="0 0 100 100"
   version="1.1"
   sodipodi:docname="pisces.svg"
   inkscape:version="0.92.1 r15371">
  <metadata
     id="metadata8623">
    <rdf:RDF>
      <cc:Work
         rdf:about="">
        <dc:format>image/svg+xml</dc:format>
        <dc:type
           rdf:resource="http://purl.org/dc/dcmitype/StillImage" />
        <dc:title></dc:title>
      </cc:Work>
    </rdf:RDF>
  </metadata>
  <defs
     id="defs8621" />
  <sodipodi:namedview
     pagecolor="#ffffff"
     bordercolor="#666666"
     borderopacity="1"
     objecttolerance="10"
     gridtolerance="10"
     guidetolerance="10"
     inkscape:pageopacity="0"
     inkscape:pageshadow="2"
     inkscape:window-width="694"
     inkscape:window-height="480"
     id="namedview8619"
     showgrid="false"
     inkscape:pagecheckerboard="true"
     inkscape:zoom="2.36"
     inkscape:cx="50"
     inkscape:cy="50"
     inkscape:window-x="8"
     inkscape:window-y="46"
     inkscape:window-maximized="0"
     inkscape:current-layer="Layer_1" />
  <g
     transform="matrix(4.0837252,0,0,4.0837252,-16.349603,-12.82012)"
     id="stop"
     style="opacity:0.98000004;stroke-width:0.24487445">
    <g
       id="g4503"
       style="stroke-width:0.24487445" />
  </g>
  <path
     id="path8616"
     style="fill:#ffffff"
     d="m 24.64,58.5 h 5.77 a 26,26 0 0 1 -6.95,12.5 6,6 0 1 0 8.48,8.49 37.91,37.91 0 0 0 10.67,-21 H 55.36 A 37.91,37.91 0 0 0 66,79.46 6.0033741,6.0033741 0 0 0 74.52,71 26,26 0 0 1 67.57,58.5 h 5.77 a 6,6 0 0 0 0,-12 H 67.57 A 26,26 0 0 1 74.52,34 6.0033741,6.0033741 0 0 0 66,25.54 37.91,37.91 0 0 0 55.33,46.54 H 42.62 A 37.91,37.91 0 0 0 32,25.54 6.0104742,6.0104742 0 0 0 23.46,34 26,26 0 0 1 30.41,46.5 h -5.77 a 6,6 0 1 0 0,12 z m 69.270977,47.10791 H 4.069023 c -4.5043489,0 -8.1674504,-3.6631 -8.1674504,-8.16745 V 7.5985056 c 0,-4.5043489 3.6631015,-8.16745039 8.1674504,-8.16745039 h 89.841954 c 4.504349,0 8.167453,3.66310149 8.167453,8.16745039 V 97.44046 c 0,4.50435 -3.663104,8.16745 -8.167453,8.16745 z m 0,-8.16745 v 4.08373 z M 4.069023,7.5985056 V 97.44046 H 93.898726 L 93.910977,7.5985056 Z M 97.994703,97.44046 c 0,2.246049 -1.837677,4.08373 -4.083726,4.08373 H 4.069023 c -2.2460489,0 -4.0837252,-1.837681 -4.0837252,-4.08373 V 7.5985056 c 0,-2.2460489 1.8376763,-4.0837252 4.0837252,-4.0837252 h 89.841954 c 2.246049,0 4.083726,1.8376763 4.083726,4.0837252 z" />
</svg>
