<?xml version="1.0" encoding="UTF-8" standalone="no"?>
<svg
   xmlns:dc="http://purl.org/dc/elements/1.1/"
   xmlns:cc="http://creativecommons.org/ns#"
   xmlns:rdf="http://www.w3.org/1999/02/22-rdf-syntax-ns#"
   xmlns:svg="http://www.w3.org/2000/svg"
   xmlns="http://www.w3.org/2000/svg"
   xmlns:sodipodi="http://sodipodi.sourceforge.net/DTD/sodipodi-0.dtd"
   xmlns:inkscape="http://www.inkscape.org/namespaces/inkscape"
   data-name="Layer 1"
   id="Layer_1"
   viewBox="0 0 100 100"
   version="1.1"
   sodipodi:docname="scorpio.svg"
   inkscape:version="0.92.1 r15371">
  <metadata
     id="metadata9819">
    <rdf:RDF>
      <cc:Work
         rdf:about="">
        <dc:format>image/svg+xml</dc:format>
        <dc:type
           rdf:resource="http://purl.org/dc/dcmitype/StillImage" />
        <dc:title></dc:title>
      </cc:Work>
    </rdf:RDF>
  </metadata>
  <defs
     id="defs9817" />
  <sodipodi:namedview
     pagecolor="#ffffff"
     bordercolor="#666666"
     borderopacity="1"
     objecttolerance="10"
     gridtolerance="10"
     guidetolerance="10"
     inkscape:pageopacity="0"
     inkscape:pageshadow="2"
     inkscape:window-width="694"
     inkscape:window-height="480"
     id="namedview9815"
     showgrid="false"
     inkscape:pagecheckerboard="true"
     inkscape:zoom="2.36"
     inkscape:cx="50"
     inkscape:cy="50"
     inkscape:window-x="0"
     inkscape:window-y="0"
     inkscape:window-maximized="0"
     inkscape:current-layer="Layer_1" />
  <g
     transform="matrix(4.0837252,0,0,4.0837252,-16.616589,-16.237441)"
     id="stop"
     style="opacity:0.98000004;stroke-width:0.24487445">
    <g
       id="g4503"
       style="stroke-width:0.24487445" />
  </g>
  <path
     id="path9812"
     style="fill:#ffffff"
     d="m 86,52.3 a 6,6 0 0 0 -8.49,0 L 72,57.8 A 6,6 0 0 0 75.69,68 3.44,3.44 0 0 1 68.85,67.55 V 29.82 A 14.74,14.74 0 0 0 45.31,18 14.66,14.66 0 0 0 27.77,18 14.74,14.74 0 0 0 4.24,29.82 a 6,6 0 1 0 12,0 2.77,2.77 0 1 1 5.54,0 v 24.47 a 6,6 0 0 0 12,0 V 29.82 a 2.77,2.77 0 1 1 5.54,0 v 24.47 a 6,6 0 0 0 12,0 V 29.82 a 2.77,2.77 0 1 1 5.54,0 v 37.72 a 6.08,6.08 0 0 0 0,0.61 A 15.43,15.43 0 0 0 87.71,68 6,6 0 0 0 91.47,57.8 Z m 7.643992,49.89059 H 3.8020375 c -4.5043489,0 -8.1674504,-3.663102 -8.1674504,-8.167451 V 4.181185 c 0,-4.50434885 3.6631015,-8.1674504 8.1674504,-8.1674504 H 93.643992 c 4.504349,0 8.167448,3.66310155 8.167448,8.1674504 v 89.841954 c 0,4.504349 -3.663099,8.167451 -8.167448,8.167451 z m 0,-8.167451 v 4.083726 z M 3.8020375,4.181185 V 94.023139 H 93.631741 L 93.643992,4.181185 Z M 97.727717,94.023139 c 0,2.246049 -1.837676,4.083726 -4.083725,4.083726 H 3.8020375 c -2.2460489,0 -4.0837252,-1.837677 -4.0837252,-4.083726 V 4.181185 c 0,-2.2460488 1.8376763,-4.08372515 4.0837252,-4.08372515 H 93.643992 c 2.246049,0 4.083725,1.83767635 4.083725,4.08372515 z" />
</svg>
