<?xml version="1.0"?>

<!DOCTYPE svg PUBLIC '-//W3C//DTD SVG 1.0//EN' 'http://www.w3.org/TR/2001/REC-SVG-20010904/DTD/svg10.dtd'>
<svg fill-opacity="1" xmlns:xlink="http://www.w3.org/1999/xlink" color-rendering="auto" color-interpolation="auto" text-rendering="auto" stroke="black" stroke-linecap="square" stroke-miterlimit="10" shape-rendering="auto" stroke-opacity="1" fill="black" stroke-dasharray="none" font-weight="normal" stroke-width="1" xmlns="http://www.w3.org/2000/svg" font-family="&apos;Dialog&apos;" font-style="normal" stroke-linejoin="miter" font-size="12" stroke-dashoffset="0" image-rendering="auto">
  <!--Unicode Character 'SQUARE FOUR CORNERS' (U+26F6)-->
  <defs id="genericDefs" />
  <g>
    <g>
      <path d="M276.4688 243.9844 L252.8438 243.9844 L252.8438 187.875 Q252.8438 182.8125 247.9922 178.5938 Q243.1406 174.375 238.0781 174.375 L183.2344 174.375 L183.2344 150.75 L246.2344 150.75 Q256.2188 150.75 266.3438 159.9609 Q276.4688 169.1719 276.4688 179.0156 L276.4688 243.9844 ZM104.7656 174.375 L49.9219 174.375 Q44.8594 174.375 40.0078 178.5938 Q35.1562 182.8125 35.1562 187.875 L35.1562 243.9844 L11.5312 243.9844 L11.5312 179.0156 Q11.5312 169.1719 21.6562 159.9609 Q31.7812 150.75 41.7656 150.75 L104.7656 150.75 L104.7656 174.375 ZM276.4688 387.4219 Q276.4688 397.2656 266.3438 406.4766 Q256.2188 415.6875 246.2344 415.6875 L183.2344 415.6875 L183.2344 392.0625 L238.0781 392.0625 Q243.1406 392.0625 247.9922 387.8438 Q252.8438 383.625 252.8438 378.5625 L252.8438 322.4531 L276.4688 322.4531 L276.4688 387.4219 ZM104.7656 415.6875 L41.7656 415.6875 Q31.7812 415.6875 21.6562 406.4766 Q11.5312 397.2656 11.5312 387.4219 L11.5312 322.4531 L35.1562 322.4531 L35.1562 378.5625 Q35.1562 383.625 40.0078 387.8438 Q44.8594 392.0625 49.9219 392.0625 L104.7656 392.0625 L104.7656 415.6875 Z" stroke="none" />
    </g>
  </g>
</svg>
