<?xml version="1.0" encoding="UTF-8" standalone="no"?>
<svg
   xmlns:dc="http://purl.org/dc/elements/1.1/"
   xmlns:cc="http://creativecommons.org/ns#"
   xmlns:rdf="http://www.w3.org/1999/02/22-rdf-syntax-ns#"
   xmlns:svg="http://www.w3.org/2000/svg"
   xmlns="http://www.w3.org/2000/svg"
   xmlns:sodipodi="http://sodipodi.sourceforge.net/DTD/sodipodi-0.dtd"
   xmlns:inkscape="http://www.inkscape.org/namespaces/inkscape"
   data-name="Layer 1"
   id="Layer_1"
   viewBox="0 0 100 100"
   version="1.1"
   sodipodi:docname="taurus.svg"
   inkscape:version="0.92.1 r15371">
  <metadata
     id="metadata10385">
    <rdf:RDF>
      <cc:Work
         rdf:about="">
        <dc:format>image/svg+xml</dc:format>
        <dc:type
           rdf:resource="http://purl.org/dc/dcmitype/StillImage" />
        <dc:title></dc:title>
      </cc:Work>
    </rdf:RDF>
  </metadata>
  <defs
     id="defs10383" />
  <sodipodi:namedview
     pagecolor="#ffffff"
     bordercolor="#666666"
     borderopacity="1"
     objecttolerance="10"
     gridtolerance="10"
     guidetolerance="10"
     inkscape:pageopacity="0"
     inkscape:pageshadow="2"
     inkscape:window-width="694"
     inkscape:window-height="480"
     id="namedview10381"
     showgrid="false"
     inkscape:pagecheckerboard="true"
     inkscape:zoom="2.36"
     inkscape:cx="50"
     inkscape:cy="50"
     inkscape:window-x="0"
     inkscape:window-y="0"
     inkscape:window-maximized="0"
     inkscape:current-layer="Layer_1" />
  <g
     transform="matrix(4.0837252,0,0,4.0837252,-15.509655,-13.989214)"
     id="stop"
     style="opacity:0.98000004;stroke-width:0.24487445">
    <g
       id="g4503"
       style="stroke-width:0.24487445" />
  </g>
  <path
     id="path10378"
     style="fill:#ffffff"
     d="M 25.16,60.65 A 24.67,24.67 0 1 0 65.92,42 a 24.61,24.61 0 0 0 8.57,-18.67 6,6 0 0 0 -12,0 12.67,12.67 0 0 1 -25.33,0 6,6 0 0 0 -12,0 A 24.61,24.61 0 0 0 33.73,42 24.61,24.61 0 0 0 25.16,60.65 Z M 49.83,48 A 12.67,12.67 0 1 1 37.16,60.65 12.68,12.68 0 0 1 49.83,48 Z m 44.920925,56.43882 H 4.908971 c -4.5043489,0 -8.1674504,-3.6631 -8.1674504,-8.167454 V 6.4294121 c 0,-4.5043489 3.6631015,-8.1674504 8.1674504,-8.1674504 h 89.841954 c 4.504349,0 8.167455,3.6631015 8.167455,8.1674504 V 96.271366 c 0,4.504354 -3.663106,8.167454 -8.167455,8.167454 z m 0,-8.167454 v 4.083724 z M 4.908971,6.4294121 V 96.271366 h 89.829703 l 0.01225,-89.8419539 z m 93.92568,89.8419539 c 0,2.246049 -1.837677,4.083724 -4.083726,4.083724 H 4.908971 c -2.2460489,0 -4.0837252,-1.837675 -4.0837252,-4.083724 V 6.4294121 c 0,-2.2460489 1.8376763,-4.0837252 4.0837252,-4.0837252 h 89.841954 c 2.246049,0 4.083726,1.8376763 4.083726,4.0837252 z" />
</svg>
