<?xml version="1.0" encoding="UTF-8" standalone="no"?>
<svg
   xmlns:dc="http://purl.org/dc/elements/1.1/"
   xmlns:cc="http://creativecommons.org/ns#"
   xmlns:rdf="http://www.w3.org/1999/02/22-rdf-syntax-ns#"
   xmlns:svg="http://www.w3.org/2000/svg"
   xmlns="http://www.w3.org/2000/svg"
   xmlns:sodipodi="http://sodipodi.sourceforge.net/DTD/sodipodi-0.dtd"
   xmlns:inkscape="http://www.inkscape.org/namespaces/inkscape"
   data-name="Layer 1"
   id="Layer_1"
   viewBox="0 0 100 100"
   version="1.1"
   sodipodi:docname="virgo.svg"
   inkscape:version="0.92.1 r15371">
  <metadata
     id="metadata10951">
    <rdf:RDF>
      <cc:Work
         rdf:about="">
        <dc:format>image/svg+xml</dc:format>
        <dc:type
           rdf:resource="http://purl.org/dc/dcmitype/StillImage" />
        <dc:title></dc:title>
      </cc:Work>
    </rdf:RDF>
  </metadata>
  <defs
     id="defs10949" />
  <sodipodi:namedview
     pagecolor="#ffffff"
     bordercolor="#666666"
     borderopacity="1"
     objecttolerance="10"
     gridtolerance="10"
     guidetolerance="10"
     inkscape:pageopacity="0"
     inkscape:pageshadow="2"
     inkscape:window-width="694"
     inkscape:window-height="480"
     id="namedview10947"
     showgrid="false"
     inkscape:pagecheckerboard="true"
     inkscape:zoom="1.668772"
     inkscape:cx="50"
     inkscape:cy="50"
     inkscape:window-x="0"
     inkscape:window-y="0"
     inkscape:window-maximized="0"
     inkscape:current-layer="Layer_1" />
  <g
     transform="matrix(4.0837252,0,0,4.0837252,-15.925222,-11.125468)"
     id="stop"
     style="opacity:0.98000004;stroke-width:0.24487445">
    <g
       id="g4503"
       style="stroke-width:0.24487445" />
  </g>
  <path
     id="path10944"
     style="fill:#ffffff"
     d="m 73.09,30.52 a 15.28,15.28 0 0 0 -24.17,-8.39 15.22,15.22 0 0 0 -18.65,0 15.3,15.3 0 0 0 -24.64,12.14 6,6 0 1 0 12,0 3.325,3.325 0 1 1 6.65,0 v 26 a 6,6 0 1 0 12,0 v -26 a 3.325,3.325 0 1 1 6.65,0 v 26 a 6,6 0 0 0 12,0 v -26 a 3.325,3.325 0 1 1 6.65,0 v 5.23 c 0,0.11 0,0.22 0,0.33 V 69.67 L 52,79.21 a 6,6 0 1 0 8.48,8.49 l 4.18,-4.18 a 15.06,15.06 0 0 0 27,-9.15 6,6 0 0 0 -12,0 3.08,3.08 0 0 1 -6.14,0.24 L 88.06,60.16 a 17.47,17.47 0 0 0 -15,-29.64 z m 6.48,21.15 -6,6 V 42.72 a 5.49,5.49 0 0 1 6,8.95 z m 14.765358,55.63256 H 4.4934037 c -4.50434894,0 -8.1674504,-3.6631 -8.1674504,-8.167447 V 9.2931582 c 0,-4.5043489 3.66310146,-8.1674504 8.1674504,-8.1674504 H 94.335358 c 4.504349,0 8.167452,3.6631015 8.167452,8.1674504 V 99.135113 c 0,4.504347 -3.663103,8.167447 -8.167452,8.167447 z m 0,-8.167447 v 4.083727 z M 4.4934037,9.2931582 V 99.135113 H 94.323107 L 94.335358,9.2931582 Z M 98.419083,99.135113 c 0,2.246047 -1.837676,4.083727 -4.083725,4.083727 H 4.4934037 c -2.2460489,0 -4.08372524,-1.83768 -4.08372524,-4.083727 V 9.2931582 c 0,-2.2460489 1.83767634,-4.0837252 4.08372524,-4.0837252 H 94.335358 c 2.246049,0 4.083725,1.8376763 4.083725,4.0837252 z" />
</svg>
